<svg width="50" height="50" viewBox="0 0 50 50" fill="none" xmlns="http://www.w3.org/2000/svg">
<path d="M16.6666 6.25H33.3333C34.4383 6.25 35.4981 6.68899 36.2795 7.47039C37.0609 8.25179 37.4999 9.3116 37.4999 10.4167V14.2083C37.5 15.8254 37.8766 17.4203 38.5999 18.8667L40.5666 22.8C41.2899 24.2463 41.6665 25.8412 41.6666 27.4583V39.5833C41.6666 40.6884 41.2276 41.7482 40.4462 42.5296C39.6648 43.311 38.605 43.75 37.4999 43.75H12.4999C11.3948 43.75 10.335 43.311 9.55364 42.5296C8.77224 41.7482 8.33325 40.6884 8.33325 39.5833V27.4583C8.33336 25.8412 8.70997 24.2463 9.43325 22.8L12.4999 16.6667V10.4167C12.4999 9.3116 12.9389 8.25179 13.7203 7.47039C14.5017 6.68899 15.5615 6.25 16.6666 6.25V6.25Z" stroke="#6444BD" stroke-width="4.16667" stroke-linecap="round" stroke-linejoin="round"/>
<path d="M29.1667 35.4167C31.4679 35.4167 33.3333 33.5512 33.3333 31.25C33.3333 28.9488 31.4679 27.0833 29.1667 27.0833C26.8655 27.0833 25 28.9488 25 31.25C25 33.5512 26.8655 35.4167 29.1667 35.4167Z" stroke="#6444BD" stroke-width="4.16667" stroke-linecap="round" stroke-linejoin="round"/>
<path d="M22.9167 14.5833H27.0833M12.5 43.75C13.6051 43.75 14.6649 43.311 15.4463 42.5296C16.2277 41.7482 16.6667 40.6884 16.6667 39.5833V27.4583C16.6666 25.8412 16.2899 24.2464 15.5667 22.8L12.5 16.6667V43.75Z" stroke="#6444BD" stroke-width="4.16667" stroke-linecap="round" stroke-linejoin="round"/>
</svg>
